# This file uses centimeters as units for non-parametric coordinates.

mtllib fertestobj.mtl
g default
v 2.733813 0.240732 9.006827
v 3.257841 0.715153 8.077087
v 3.879852 0.821456 7.047718
v 4.316494 0.562302 6.037540
v 4.045934 0.173100 5.032096
v 3.838767 0.209619 4.966867
v 3.773209 0.566512 5.714751
v 2.335811 0.737745 7.401492
v 1.760618 0.330643 8.237589
v 3.078453 0.822715 6.572819
v 2.051304 0.326208 8.804014
v 2.746080 0.881732 7.825357
v 3.486510 0.996488 6.799013
v 4.070134 0.726529 5.814589
v 3.950845 0.328359 4.875846
v 4.395396 0.377238 5.631989
v 4.172501 0.533128 5.401139
v 3.928367 0.402516 5.398690
v 3.780265 0.832697 7.359946
v 3.289473 1.007498 7.071418
v 2.866651 0.832490 6.818578
vt 0.708463 0.494597
vt 0.687316 0.488452
vt 0.719565 0.410585
vt 0.782743 0.410581
vt 0.795361 0.171295
vt 0.681643 0.183008
vt 0.674536 0.070038
vt 0.797365 0.050252
vt 0.796530 0.295718
vt 0.703388 0.295718
vt 0.728468 0.040814
vt 0.738593 0.171297
vt 0.749994 0.295719
vt 0.750075 0.410583
vt 0.692146 0.492875
vt 0.768958 0.454387
vt 0.737877 0.454393
vt 0.716893 0.449964
vt 0.803844 0.263001
vt 0.746929 0.263002
vt 0.697667 0.263002
vn 0.182833 0.950287 -0.252046
vn 0.434754 0.744472 -0.506705
vn -0.472688 0.816303 -0.331987
vn -0.249733 0.867115 -0.430981
vn -0.186512 0.914438 0.359188
vn -0.149655 0.953446 0.261808
vn -0.374224 0.924947 0.066546
vn -0.423864 0.888701 0.174786
vn -0.024145 0.996765 0.076655
vn -0.289119 0.950236 -0.116027
vn 0.112045 0.978404 -0.173701
vn -0.236830 0.901452 -0.362347
vn 0.073248 0.913874 0.399337
vn 0.003992 0.878944 0.476908
vn 0.201814 0.948614 0.243728
vn 0.510786 0.859045 -0.033750
vn 0.419179 0.907102 0.038142
vn 0.744187 0.603976 -0.285306
vn 0.833709 0.224193 -0.504646
vn 0.122566 0.856112 -0.502046
vn -0.590794 0.794908 -0.138144
s 1
g pasted__polySurface6 pasted__polySurface3 pasted__polySurface1 pasted__pPlane1 group
usemtl pasted__lambert2SG
f 14/14/1 17/17/2 18/18/3 7/3/4
f 11/11/5 12/12/6 8/6/7 9/7/8
f 12/12/6 20/20/9 21/21/10 8/6/7
f 13/13/11 14/14/1 7/3/4 10/10/12
f 2/5/13 12/12/6 11/11/5 1/8/14
f 19/19/15 20/20/9 12/12/6 2/5/13
f 4/4/16 14/14/1 13/13/11 3/9/17
f 16/16/18 17/17/2 14/14/1 4/4/16
f 5/1/19 15/15/20 17/17/2 16/16/18
f 18/18/3 17/17/2 15/15/20 6/2/21
f 3/9/17 13/13/11 20/20/9 19/19/15
f 21/21/10 20/20/9 13/13/11 10/10/12
g default
v 1.961404 0.240732 8.395309
v 1.239405 0.715153 9.181274
v 0.399308 0.821456 10.041933
v -0.255920 0.562302 10.926123
v -0.221453 0.173100 11.966764
v -0.034585 0.209619 12.077459
v 0.199575 0.566512 11.364159
v 1.983344 0.737745 10.049100
v 2.733836 0.330643 9.365971
v 1.071493 0.822715 10.686866
v 2.579788 0.326208 8.748229
v 1.680388 0.881732 9.542938
v 0.725673 0.996488 10.373683
v -0.066810 0.726529 11.199322
v -0.164447 0.328359 12.140563
v -0.425109 0.377238 11.303047
v -0.260646 0.533128 11.578594
v -0.023486 0.402516 11.636578
v 0.567386 0.832697 9.760590
v 0.979570 1.007498 10.153311
v 1.333699 0.832490 10.495801
vt 0.708463 0.494597
vt 0.687316 0.488452
vt 0.719565 0.410585
vt 0.782743 0.410581
vt 0.795361 0.171295
vt 0.681643 0.183008
vt 0.674536 0.070038
vt 0.797365 0.050252
vt 0.796530 0.295718
vt 0.703388 0.295718
vt 0.728468 0.040814
vt 0.738593 0.171297
vt 0.749994 0.295719
vt 0.750075 0.410583
vt 0.692146 0.492875
vt 0.768958 0.454387
vt 0.737877 0.454393
vt 0.716893 0.449964
vt 0.803844 0.263001
vt 0.746929 0.263002
vt 0.697667 0.263002
vn -0.235430 0.950287 0.203784
vn -0.538728 0.744472 0.394377
vn 0.384659 0.816303 0.430914
vn 0.145018 0.867115 0.476530
vn 0.263413 0.914438 -0.307272
vn 0.205347 0.953446 -0.220845
vn 0.379546 0.924947 0.020430
vn 0.452532 0.888701 -0.073661
vn 0.040968 0.996765 -0.069141
vn 0.255097 0.950236 0.178823
vn -0.148660 0.978404 0.143619
vn 0.148084 0.901452 0.406761
vn 0.019622 0.913874 -0.405524
vn 0.104726 0.878944 -0.465284
vn -0.141003 0.948614 -0.283285
vn -0.505050 0.859045 -0.083465
vn -0.399477 0.907102 -0.132605
vn -0.789607 0.603976 0.108325
vn -0.926729 0.224193 0.301513
vn -0.233682 0.856112 0.460939
vn 0.543808 0.794908 0.269063
s 1
g pasted__polySurface6 pasted__polySurface3 pasted__polySurface1 pasted__pPlane1 group1
usemtl pasted__lambert2SG1
f 35/35/22 38/38/23 39/39/24 28/24/25
f 32/32/26 33/33/27 29/27/28 30/28/29
f 33/33/27 41/41/30 42/42/31 29/27/28
f 34/34/32 35/35/22 28/24/25 31/31/33
f 23/26/34 33/33/27 32/32/26 22/29/35
f 40/40/36 41/41/30 33/33/27 23/26/34
f 25/25/37 35/35/22 34/34/32 24/30/38
f 37/37/39 38/38/23 35/35/22 25/25/37
f 26/22/40 36/36/41 38/38/23 37/37/39
f 39/39/24 38/38/23 36/36/41 27/23/42
f 24/30/38 34/34/32 41/41/30 40/40/36
f 42/42/31 41/41/30 34/34/32 31/31/33
g default
v 2.036169 0.103562 9.543824
v 2.152008 0.033293 8.574095
v -2.134990 0.387285 8.987565
v -2.095670 0.397321 8.457876
v 1.001701 0.611617 9.415920
v 1.052346 0.602176 8.364024
v -0.370150 0.820055 9.392734
v -0.308009 0.820480 8.389901
v -1.489619 0.646677 9.318649
v -1.430536 0.656045 8.480825
v -2.663778 0.057127 8.426644
v -2.677725 0.053169 8.641119
v 2.182071 0.110681 9.158733
v 1.054914 0.688006 8.875888
v -0.340444 0.905926 8.897508
v -1.486352 0.733194 8.928301
v -2.146823 0.470722 8.634971
v -2.720422 0.124401 8.515011
v 0.146868 0.742029 9.345107
v 0.181889 0.824351 8.889415
v 0.198614 0.738761 8.422327
vt 0.044791 0.410594
vt 0.128780 0.410594
vt 0.125781 0.483474
vt 0.072660 0.483475
vt 0.042676 0.040132
vt 0.140053 0.030094
vt 0.155831 0.155928
vt 0.050529 0.155928
vt 0.145515 0.295723
vt 0.045049 0.295724
vt 0.123733 0.551331
vt 0.102266 0.551020
vt 0.081640 0.030095
vt 0.104647 0.155929
vt 0.094659 0.295723
vt 0.083843 0.410592
vt 0.107883 0.483471
vt 0.114687 0.551328
vt 0.052625 0.244843
vt 0.098398 0.243393
vt 0.145275 0.243419
vn -0.240047 0.951691 0.191474
vn -0.238135 0.971106 0.015635
vn -0.442447 0.895974 -0.038363
vn -0.486002 0.842115 0.233762
vn 0.416157 0.893222 0.170199
vn 0.454510 0.890727 0.005099
vn 0.338191 0.940987 -0.013031
vn 0.305760 0.936615 0.171065
vn 0.150204 0.973287 0.173641
vn 0.152852 0.988230 0.006116
vn -0.054194 0.998519 -0.004689
vn -0.056500 0.981109 0.185021
vn -0.554477 0.830721 -0.049580
vn -0.585770 0.749330 0.308835
vn 0.477821 0.866702 -0.143231
vn 0.356110 0.921467 -0.155189
vn 0.151072 0.974392 -0.166544
vn -0.048997 0.983185 -0.175920
vn -0.193310 0.959402 -0.205374
vn -0.323848 0.875000 -0.359858
vn -0.376341 0.746670 -0.548499
s 1
g polySurface22 polySurface19 polySurface17 polySurface15 polySurface13 polySurface11 polySurface9 polySurface7 polySurface5 polySurface3 polySurface1 pPlane1
usemtl lambert2SG
f 51/43/43 58/58/44 59/59/45 45/46/46
f 43/47/47 55/55/48 56/56/49 47/50/50
f 61/61/51 62/62/52 57/57/53 49/52/54
f 49/52/54 57/57/53 58/58/44 51/43/43
f 45/46/46 59/59/45 60/60/55 54/54/56
f 56/56/49 55/55/48 44/48/57 48/49/58
f 57/57/53 62/62/52 63/63/59 50/51/60
f 58/58/44 57/57/53 50/51/60 52/44/61
f 59/59/45 58/58/44 52/44/61 46/45/62
f 60/60/55 59/59/45 46/45/62 53/53/63
f 47/50/50 56/56/49 62/62/52 61/61/51
f 63/63/59 62/62/52 56/56/49 48/49/58
g default
v 1.942767 0.291690 9.647101
v 2.931047 0.748769 9.952484
v 4.093804 0.850185 10.434501
v 5.065008 0.619440 10.603752
v 5.961596 0.252177 10.278143
v 6.015654 0.328443 9.847949
v 5.317811 0.619272 10.007491
v 3.353839 0.748964 8.955338
v 2.541469 0.381826 8.606800
v 4.399770 0.852399 9.651376
v 2.040857 0.332221 8.972923
v 3.098079 0.874682 9.473363
v 4.261351 0.982029 10.008023
v 5.239573 0.740508 10.313764
v 6.074169 0.214107 9.961328
v 5.521497 0.444818 10.496973
v 5.661511 0.559588 10.323558
v 5.704763 0.444661 10.064682
vt 0.878862 0.478403
vt 0.837388 0.464386
vt 0.879126 0.398654
vt 0.943871 0.398653
vt 0.967230 0.168750
vt 0.858938 0.168750
vt 0.858589 0.070355
vt 0.977702 0.052809
vt 0.966210 0.298177
vt 0.882184 0.295723
vt 0.911817 0.040625
vt 0.916605 0.168751
vt 0.920413 0.295723
vt 0.910371 0.398654
vt 0.845422 0.478383
vt 0.916225 0.440822
vt 0.894797 0.440811
vt 0.869279 0.440821
vn 0.281294 0.951506 0.124536
vn 0.543722 0.812062 0.211949
vn 0.471413 0.869388 -0.148103
vn 0.341007 0.905170 -0.253733
vn -0.388189 0.913203 -0.123978
vn -0.233475 0.968448 -0.087167
vn -0.132603 0.945035 -0.298874
vn -0.290005 0.899946 -0.325566
vn 0.042002 0.998611 0.031824
vn 0.147028 0.955604 -0.255349
vn -0.328911 0.937861 0.110606
vn -0.447209 0.894045 0.026222
vn -0.061965 0.958185 0.279359
vn 0.163809 0.892149 0.420995
vn 0.451674 0.689431 0.566283
vn 0.674178 0.593082 0.440157
vn 0.607129 0.776436 0.168941
vn 0.524714 0.850972 -0.022865
s 1
g pPlane1 polySurface2
usemtl lambert2SG
f 77/77/64 80/80/65 81/81/66 70/66/67
f 74/74/68 75/75/69 71/69/70 72/70/71
f 75/75/69 76/76/72 73/73/73 71/69/70
f 76/76/72 77/77/64 70/66/67 73/73/73
f 65/68/74 75/75/69 74/74/68 64/71/75
f 66/72/76 76/76/72 75/75/69 65/68/74
f 67/67/77 77/77/64 76/76/72 66/72/76
f 79/79/78 80/80/65 77/77/64 67/67/77
f 68/64/79 78/78/80 80/80/65 79/79/78
f 81/81/66 80/80/65 78/78/80 69/65/81
g default
v 2.627803 0.240732 8.516125
v 1.691153 0.715153 8.004551
v 0.653575 0.821456 7.396331
v -0.362339 0.562302 6.973207
v -1.364084 0.173100 7.257160
v -1.426542 0.209619 7.465179
v -0.677850 0.566512 7.520751
v 1.027922 0.737745 8.935514
v 1.871619 0.330643 9.499498
v 0.189412 0.822715 8.203995
v 2.434115 0.326208 9.201279
v 1.446274 0.881732 8.519625
v 0.410141 0.996488 7.792956
v -0.581983 0.726529 7.222520
v -1.519050 0.328359 7.354326
v -0.768907 0.377238 6.899724
v -0.996762 0.533128 7.125680
v -0.995953 0.402516 7.369825
v 0.967105 0.832697 7.491743
v 0.685151 1.007498 7.986341
v 0.437976 0.832490 8.412499
vt 0.708463 0.494597
vt 0.687316 0.488452
vt 0.719565 0.410585
vt 0.782743 0.410581
vt 0.795361 0.171295
vt 0.681643 0.183008
vt 0.674536 0.070038
vt 0.797365 0.050252
vt 0.796530 0.295718
vt 0.703388 0.295718
vt 0.728468 0.040814
vt 0.738593 0.171297
vt 0.749994 0.295719
vt 0.750075 0.410583
vt 0.692146 0.492875
vt 0.768958 0.454387
vt 0.737877 0.454393
vt 0.716893 0.449964
vt 0.803844 0.263001
vt 0.746929 0.263002
vt 0.697667 0.263002
vn -0.254463 0.950287 -0.179454
vn -0.512461 0.744472 -0.427954
vn -0.325650 0.816303 0.477076
vn -0.427610 0.867115 0.255462
vn 0.361645 0.914438 0.181702
vn 0.263782 0.953446 0.146148
vn 0.071533 0.924947 0.373303
vn 0.180427 0.888701 0.421494
vn 0.076970 0.996765 0.023120
vn -0.112159 0.950236 0.290641
vn -0.175181 0.978404 -0.109717
vn -0.359155 0.901452 0.241644
vn 0.398323 0.913874 -0.078571
vn 0.476812 0.878944 -0.010355
vn 0.241013 0.948614 -0.205048
vn -0.040563 0.859045 -0.510290
vn 0.032545 0.907102 -0.419651
vn -0.295211 0.603976 -0.740313
vn -0.515726 0.224193 -0.826900
vn -0.503636 0.856112 -0.115855
vn -0.130248 0.794908 0.592585
s 1
g polySurface3 polySurface1 pPlane1 polySurface6
usemtl lambert2SG
f 95/95/82 98/98/83 99/99/84 88/84/85
f 92/92/86 93/93/87 89/87/88 90/88/89
f 93/93/87 101/101/90 102/102/91 89/87/88
f 94/94/92 95/95/82 88/84/85 91/91/93
f 83/86/94 93/93/87 92/92/86 82/89/95
f 100/100/96 101/101/90 93/93/87 83/86/94
f 85/85/97 95/95/82 94/94/92 84/90/98
f 97/97/99 98/98/83 95/95/82 85/85/97
f 86/82/100 96/96/101 98/98/83 97/97/99
f 99/99/84 98/98/83 96/96/101 87/83/102
f 84/90/98 94/94/92 101/101/90 100/100/96
f 102/102/91 101/101/90 94/94/92 91/91/93
g default
v 3.019669 0.089240 8.860810
v 2.645383 0.531524 7.998710
v 2.347592 0.705760 6.671045
v 1.936524 0.477196 5.632044
v 1.316506 0.034458 4.910113
v 1.201441 0.048403 4.960252
v 1.317238 0.475979 5.785823
v 1.646607 0.533276 8.246416
v 1.701042 0.158703 9.081905
v 1.506451 0.705496 6.879531
v 2.429623 0.080788 9.205902
v 2.164741 0.627958 8.149266
v 1.848516 0.805758 6.789085
v 1.613381 0.570693 5.676545
v 1.248710 0.115256 4.865931
v 1.668458 0.274729 5.230033
v 1.491769 0.363081 5.225883
v 1.292767 0.273740 5.323457
v 2.378878 0.710795 6.810245
v 1.881717 0.811037 6.931677
v 1.463524 0.710705 7.037107
vt 0.262083 0.507651
vt 0.249770 0.505128
vt 0.241192 0.410590
vt 0.304997 0.410593
vt 0.316928 0.155925
vt 0.214032 0.155927
vt 0.199297 0.063795
vt 0.332598 0.051354
vt 0.319924 0.295722
vt 0.233283 0.295721
vt 0.267026 0.034837
vt 0.266640 0.155927
vt 0.268652 0.295722
vt 0.272582 0.410592
vt 0.256624 0.507910
vt 0.288625 0.460948
vt 0.271598 0.460942
vt 0.249918 0.460945
vt 0.319614 0.281263
vt 0.268444 0.281263
vt 0.225326 0.281262
vn -0.061273 0.962366 -0.264760
vn -0.083624 0.857522 -0.507606
vn -0.509142 0.816411 -0.272486
vn -0.355878 0.917963 -0.175201
vn 0.124060 0.903247 0.410796
vn 0.076129 0.956186 0.282690
vn -0.086095 0.941228 0.326616
vn -0.021560 0.897355 0.440782
vn 0.031729 0.992577 0.117410
vn -0.170251 0.971764 0.163367
vn -0.051516 0.980704 -0.188590
vn -0.317639 0.940719 -0.118964
vn 0.238151 0.939460 0.246371
vn 0.248048 0.892189 0.377455
vn 0.217526 0.972981 0.077395
vn 0.188295 0.934652 -0.301613
vn 0.174133 0.956944 -0.232241
vn 0.317759 0.747155 -0.583772
vn 0.471244 0.467395 -0.747978
vn -0.166587 0.799403 -0.577239
vn -0.630779 0.749997 -0.199053
s 1
g polySurface15 polySurface13 polySurface11 polySurface9 polySurface7 polySurface5 polySurface3 polySurface1 pPlane1 polySurface18
usemtl lambert2SG
f 116/116/103 119/119/104 120/120/105 109/105/106
f 113/113/107 114/114/108 110/108/109 111/109/110
f 114/114/108 122/122/111 123/123/112 110/108/109
f 115/115/113 116/116/103 109/105/106 112/112/114
f 104/107/115 114/114/108 113/113/107 103/110/116
f 121/121/117 122/122/111 114/114/108 104/107/115
f 106/106/118 116/116/103 115/115/113 105/111/119
f 118/118/120 119/119/104 116/116/103 106/106/118
f 107/103/121 117/117/122 119/119/104 118/118/120
f 120/120/105 119/119/104 117/117/122 108/104/123
f 105/111/119 115/115/113 122/122/111 121/121/117
f 123/123/112 122/122/111 115/115/113 112/112/114
g default
v 1.786517 -0.093195 9.007579
v 1.882315 0.173089 10.203728
v 2.241756 0.247617 11.553215
v 2.590445 0.165564 12.351431
v 3.308017 -0.054074 13.174540
v 4.779076 -0.048113 12.722834
v 4.061317 0.168761 11.899086
v 3.353149 0.169961 9.751253
v 2.878779 -0.097964 8.672095
v 3.712550 0.248401 11.100608
v 2.438978 0.155390 8.725349
v 2.545967 0.432307 9.959748
v 2.918837 0.511210 11.355139
v 3.275908 0.427459 12.182006
v 4.003169 0.201539 13.038231
vt 0.609514 0.485545
vt 0.455665 0.485554
vt 0.499977 0.382866
vt 0.653848 0.382866
vt 0.658347 0.155925
vt 0.504472 0.155926
vt 0.518035 0.036213
vt 0.632283 0.036210
vt 0.663690 0.295722
vt 0.509813 0.295722
vt 0.561684 0.033267
vt 0.587784 0.155027
vt 0.593143 0.295854
vt 0.583307 0.382758
vt 0.539035 0.487677
vn 0.016972 0.983727 0.178868
vn 0.127332 0.980530 0.149493
vn 0.305480 0.952125 -0.011803
vn 0.304328 0.952336 -0.021015
vn -0.025769 0.967750 -0.250591
vn -0.056077 0.989605 -0.132428
vn 0.291119 0.937051 -0.192833
vn 0.312687 0.904030 -0.291472
vn -0.011743 0.999909 0.006703
vn 0.286374 0.953698 -0.091930
vn -0.379156 0.924153 -0.046709
vn -0.412008 0.895957 -0.165862
vn -0.332638 0.936664 0.109599
vn -0.268957 0.908155 0.320808
vn -0.231592 0.872282 0.430685
s 1
g polySurface7 polySurface5 polySurface3 polySurface1 pPlane1 polySurface10
usemtl lambert2SG
f 137/137/124 138/138/125 129/125/126 130/126/127
f 134/134/128 135/135/129 131/129/130 132/130/131
f 135/135/129 136/136/132 133/133/133 131/129/130
f 136/136/132 137/137/124 130/126/127 133/133/133
f 125/128/134 135/135/129 134/134/128 124/131/135
f 126/132/136 136/136/132 135/135/129 125/128/134
f 127/127/137 137/137/124 136/136/132 126/132/136
f 128/124/138 138/138/125 137/137/124 127/127/137
g default
v 2.515227 0.146719 9.528051
v 3.470093 0.390674 9.213945
v 4.816364 0.482643 8.892702
v 5.857274 0.355031 8.439509
v 6.747256 0.075251 7.819828
v 6.704159 0.077762 7.672017
v 5.685636 0.360661 7.855464
v 3.195601 0.382708 8.282075
v 2.128588 0.097845 8.554959
v 4.552871 0.483984 7.999605
v 2.124719 0.186452 9.120688
v 3.316309 0.514455 8.768605
v 4.707138 0.612620 8.508747
v 5.813892 0.484291 8.204143
v 6.792929 0.187876 7.715114
v 6.302568 0.245898 8.289064
v 6.265576 0.374022 8.043891
v 6.175524 0.251551 7.855419
v 6.541087 0.151491 7.918583
v 6.547486 0.276418 7.799707
v 6.472665 0.155089 7.684410
v 6.096311 0.303600 8.411223
v 6.048823 0.432644 8.145866
v 5.933144 0.309920 7.855191
v 5.545770 0.413762 8.611586
v 5.469656 0.544185 8.288257
v 5.336042 0.418849 7.899154
v 4.130061 0.469895 9.077607
v 3.989708 0.597398 8.634718
v 3.854221 0.466475 8.142718
vt 0.429493 0.519036
vt 0.414098 0.519031
vt 0.402545 0.410591
vt 0.463413 0.410590
vt 0.469822 0.155929
vt 0.372700 0.155927
vt 0.368443 0.041796
vt 0.472698 0.052103
vt 0.477259 0.295721
vt 0.384156 0.295721
vt 0.422741 0.029219
vt 0.422875 0.155931
vt 0.437330 0.295722
vt 0.439494 0.410590
vt 0.420544 0.522155
vt 0.461704 0.459534
vt 0.436982 0.459535
vt 0.416521 0.459537
vt 0.433039 0.494818
vt 0.421628 0.494810
vt 0.408642 0.494815
vt 0.467519 0.435215
vt 0.440586 0.435217
vt 0.409576 0.435217
vt 0.471038 0.374871
vt 0.437788 0.374871
vt 0.396782 0.374871
vt 0.475504 0.224001
vt 0.429107 0.224001
vt 0.378046 0.224000
vn 0.203914 0.977761 -0.049016
vn 0.260401 0.964723 -0.038733
vn 0.131861 0.890837 -0.434767
vn 0.109941 0.924184 -0.365782
vn -0.247929 0.968289 0.030779
vn -0.198897 0.979334 0.036672
vn -0.255260 0.949719 -0.181319
vn -0.300231 0.939757 -0.163458
vn -0.066561 0.997690 0.013550
vn -0.116330 0.967627 -0.223975
vn 0.043083 0.999069 -0.002144
vn 0.125617 0.991479 -0.034499
vn 0.041462 0.954295 -0.295975
vn -0.024337 0.966795 -0.254393
vn -0.124273 0.949791 0.287148
vn -0.163139 0.944469 0.285244
vn -0.005636 0.957778 0.287455
vn 0.212028 0.927105 0.309064
vn 0.112133 0.950108 0.291068
vn 0.340219 0.860051 0.380214
vn 0.284874 0.884171 0.370256
vn 0.634075 0.613878 0.470216
vn 0.320953 0.931567 -0.170801
vn 0.385492 0.921985 -0.036616
vn 0.527679 0.765462 0.368270
vn -0.017818 0.843073 -0.537504
vn -0.083872 0.731581 -0.676576
vn 0.478365 0.543996 0.689373
vn 0.412820 0.903180 -0.117667
vn 0.023165 0.553422 -0.832579
s 1
g polySurface11 polySurface9 polySurface7 polySurface5 polySurface3 polySurface1 pPlane1 polySurface14
usemtl lambert2SG
f 152/152/139 161/161/140 162/162/141 145/141/142
f 149/149/143 150/150/144 146/144/145 147/145/146
f 150/150/144 167/167/147 168/168/148 146/144/145
f 151/151/149 164/164/150 165/165/151 148/148/152
f 140/143/153 150/150/144 149/149/143 139/146/154
f 166/166/155 167/167/147 150/150/144 140/143/153
f 163/163/156 164/164/150 151/151/149 141/147/157
f 160/160/158 161/161/140 152/152/139 142/142/159
f 157/157/160 158/158/161 155/155/162 154/154/163
f 156/156/164 155/155/162 158/158/161 159/159/165
f 143/139/166 153/153/167 158/158/161 157/157/160
f 159/159/165 158/158/161 153/153/167 144/140/168
f 154/154/163 155/155/162 161/161/140 160/160/158
f 162/162/141 161/161/140 155/155/162 156/156/164
f 142/142/159 152/152/139 164/164/150 163/163/156
f 165/165/151 164/164/150 152/152/139 145/141/142
f 141/147/157 151/151/149 167/167/147 166/166/155
f 168/168/148 167/167/147 151/151/149 148/148/152
